{"title":"Priyanka Chopra - I Can't Make You Love Me 720p x264 AAC E-Subs ","uid":10070365,"size":59509979,"categoryP":"video","categoryS":"music_videos","magnet":"?xt=urn:btih:ad2a691696e03661ae9313d22d259ce1dee55c75&amp;dn=Priyanka+Chopra+-+I+Can%27t+Make+You+Love+Me+720p+x264+AAC+E-Subs+&amp;tr=udp%3A%2F%2Ftracker.openbittorrent.com%3A80&amp;tr=udp%3A%2F%2Fopen.demonii.com%3A1337&amp;tr=udp%3A%2F%2Ftracker.coppersurfer.tk%3A6969&amp;tr=udp%3A%2F%2Fexodus.desync.com%3A6969","seeders":1,"leechers":0,"uploader":"canc232","files":1,"time":1398841338,"description":"Priyanka Chopra - I Can't Make You Love Me 720p x264 AAC E-Subs [GWC] \n\n\nCOVER : &lt;a href=&quot;\nhttp://i.imgur.com/hDKfbVn.jpg&quot; rel=&quot;nofollow&quot; target=&quot;_NEW&quot;&gt;\nhttp://i.imgur.com/hDKfbVn.jpg&lt;/a&gt;\n\n\nTHUMBNAIL IMAGE : &lt;a href=&quot;\nhttp://img838.imageshack.us/img838/5899/0lzh.jpg&quot; rel=&quot;nofollow&quot; target=&quot;_NEW&quot;&gt;\nhttp://img838.imageshack.us/img838/5899/0lzh.jpg&lt;/a&gt;\n\n\nMEDIA INFO :\nGeneral \nFormat : MPEG-4 \nFormat profile : Base Media \nFile size : 56.8 MiB \nDuration : 3mn 51s \nOverall bit rate mode : Variable \nOverall bit rate : 2 056 Kbps \n\nVideo \nFormat : AVC \nFormat profile : &lt;a class=&quot;__cf_email__&quot; href=&quot;/cdn-cgi/l/email-protection&quot; data-cfemail=&quot;763b171f18363a455847&quot;&gt;[email&amp;#160;protected]&lt;/a&gt;&lt;script cf-hash='f9e31' type=&quot;text/javascript&quot;&gt;\n/* &lt;![CDATA[ */!function(){try{var t=&quot;currentScript&quot;in document?document.currentScript:function(){for(var t=document.getElementsByTagName(&quot;script&quot;),e=t.length;e--;)if(t[e].getAttribute(&quot;cf-hash&quot;))return t[e]}();if(t&amp;&amp;t.previousSibling){var e,r,n,i,c=t.previousSibling,a=c.getAttribute(&quot;data-cfemail&quot;);if(a){for(e=&quot;&quot;,r=parseInt(a.substr(0,2),16),n=2;a.length-n;n+=2)i=parseInt(a.substr(n,2),16)^r,e+=String.fromCharCode(i);e=document.createTextNode(e),c.parentNode.replaceChild(e,c)}}}catch(u){}}();/* ]]&gt; */&lt;/script&gt; \nFormat settings, CABAC : Yes \nFormat settings, ReFrames : 3 frames \nDuration : 3mn 51s \nBit rate : 1 967 Kbps \nMaximum bit rate : 4 453 Kbps \nWidth : 1 280 pixels \nHeight : 720 pixels \nDisplay aspect ratio : 16:9 \nFrame rate mode : Variable \nFrame rate : 23.976 fps \nStream size : 54.3 MiB (96%) \nTitle : Priyanka Chopra - I Can't Make You Love Me 720p x264 AAC E-Subs [GWC] \n\nAudio \nFormat : AAC \nFormat profile : LC \nDuration : 3mn 51s \nBit rate mode : Variable \nChannel(s) : 2 channels \nSampling rate : 48.0 KHz \nStream size : 2.33 MiB (4%) \nLanguage : English \n\nText \nFormat : Timed Text \nTitle : English Subtitle by [GWC] \nLanguage : English \n","torrent":{"xt":"urn:btih:ad2a691696e03661ae9313d22d259ce1dee55c75","amp;dn":"Priyanka+Chopra+-+I+Can%27t+Make+You+Love+Me+720p+x264+AAC+E-Subs+","amp;tr":["udp%3A%2F%2Ftracker.openbittorrent.com%3A80","udp%3A%2F%2Fopen.demonii.com%3A1337","udp%3A%2F%2Ftracker.coppersurfer.tk%3A6969","udp%3A%2F%2Fexodus.desync.com%3A6969"],"infoHash":"ad2a691696e03661ae9313d22d259ce1dee55c75","infoHashBuffer":{"type":"Buffer","data":[173,42,105,22,150,224,54,97,174,147,19,210,45,37,156,225,222,229,92,117]},"announce":[],"urlList":[]}}